# xmcd
#
# Track frame offsets: 
#        150
#        17044
#        32513
#        49323
#        70397
#        91566
#        105291
#        133416
#        150591
#        182252
#        197815
#
# Disc length: 2899 seconds
#
# Revision: 0
# Processed by: cddbd v1.5.2PL0 Copyright (c) Steve Scherf et al.
# Submitted via: ExactAudioCopy v1.1
#
DISCID=850b510b
DTITLE=Jack Broadbent - Along The Trail Of Tears
DYEAR=2016
DGENRE=Blues
TTITLE0=Holdin
TTITLE1=Big Black Boat
TTITLE2=On The Road Again
TTITLE3=Far Off Galaxy
TTITLE4=Don`t Be Lonesome
TTITLE5=Without You
TTITLE6=People Live In Hell
TTITLE7=Making My Way
TTITLE8=Real
TTITLE9=The Plane Overhead
TTITLE10=Along The Trail f Tears
EXTD=
EXTT0=
EXTT1=
EXTT2=
EXTT3=
EXTT4=
EXTT5=
EXTT6=
EXTT7=
EXTT8=
EXTT9=
EXTT10=
PLAYORDER=
